<mxfile host="app.diagrams.net" modified="2023-05-13T14:26:35.125Z" agent="Mozilla/5.0 (Windows NT 10.0; Win64; x64) AppleWebKit/537.36 (KHTML, like Gecko) Chrome/115.0.0.0 Safari/537.36 Edg/115.0.0.0" version="21.2.9" etag="W_M6i-8rvwiCdLWy4jxQ" type="github">
  <diagram name="第 1 页" id="nduQcAXbeCqZvqu2ekge">
    <mxGraphModel>
      <root>
        <mxCell id="0" />
        <mxCell id="1" parent="0" />
      </root>
    </mxGraphModel>
  </diagram>
</mxfile>
